<svg xmlns="http://www.w3.org/2000/svg" viewBox="0 0 512 512">
  <polygon style="fill: #ffde46"
  points="512 166.96 512 166.96 512 166.96 478.61 166.96 378.43 166.96 378.43 133.57 345.04 133.57 345.04 89.05 311.65 89.05 311.65 33.39 278.26 33.39 278.26 0 233.74 0 233.74 33.39 200.35 33.39 200.35 89.05 166.96 89.05 166.96 133.57 133.56 133.57 133.56 166.96 33.39 166.96 33.39 166.96 0 166.96 0 256 0 256 0 256 33.39 256 33.39 289.39 66.78 289.39 66.78 478.61 66.78 489.74 66.78 512 155.82 512 155.82 489.74 155.82 478.61 155.82 478.61 155.82 478.61 211.48 478.61 211.48 445.22 211.48 445.22 211.48 445.22 300.52 445.22 300.52 445.22 300.52 445.22 300.52 478.61 356.17 478.61 356.17 478.61 356.17 478.61 356.17 512 445.21 512 445.21 489.74 445.21 478.61 445.21 289.39 478.61 289.39 478.61 256 512 256 512 166.96"/>
  <polygon style="fill: #fff"
  points="378.43 166.96 378.43 133.57 345.04 133.57 345.04 89.05 311.65 89.05 311.65 33.39 278.26 33.39 278.26 0 233.74 0 233.74 33.39 200.35 33.39 200.35 89.05 166.96 89.05 166.96 133.57 133.56 133.57 133.56 166.96 0 166.96 0 233.74 33.39 233.74 133.56 233.74 133.56 200.35 166.96 200.35 166.96 166.96 200.35 166.96 200.35 133.57 200.35 122.44 233.74 122.44 233.74 89.05 233.74 66.78 278.26 66.78 278.26 89.05 278.26 122.44 311.65 122.44 311.65 133.57 311.65 166.96 345.04 166.96 345.04 200.35 378.43 200.35 378.43 233.74 478.61 233.74 512 233.74 512 166.96 378.43 166.96"/>
  <path style="fill: #000"
  d="M133.56,167H0v89H33.39V200.35H133.56V167H167V133.57h-33.4ZM33.39,256H66.78v33.39H33.39Zm167-222.61h33.39V89H200.35ZM167,89h33.39v44.53H167Zm111.3-55.65h33.39V89H278.26ZM311.65,89H345v44.53H311.65ZM155.82,445.22h55.66v33.39H155.82Zm-89,44.52V512h89V478.61H100.17V289.39H66.78V489.74ZM445.21,256h33.4v33.39h-33.4ZM411.82,478.61H356.17V512h89V289.39H411.82ZM378.43,167V133.57H345V167h33.39v33.39H478.61V256H512V167H378.43ZM300.52,445.22h55.65v33.39H300.52ZM233.74,0h44.52V33.39H233.74ZM211.48,411.82h89v33.39h-89Z"/>
</svg>
