<svg xmlns="http://www.w3.org/2000/svg" viewBox="0 0 512 512">
  <path style="fill: #000" d="M33.39,200.35V256H0V167H133.57v33.39ZM167,133.57H133.57V167H167ZM33.39,289.39H66.78V256H33.39Zm200.35-256H200.35V89h33.39ZM200.35,89H167v44.53h33.39Zm111.3,0V33.39H278.26V89ZM155.83,478.61h55.65V445.22H155.83ZM100.17,289.39H66.78V512h89.05V478.61H100.17Zm345.05,0h33.39V256H445.22ZM411.83,478.61H356.17V512h89.05V289.39H411.83ZM345,167h33.39V133.57H345V89H311.65v44.53H345Zm33.39,0v33.39H478.61V256H512V167ZM356.17,445.22H300.52v33.39h55.65ZM278.26,0H233.74V33.39h44.52ZM211.48,445.22h89V411.83h-89Z"/>
</svg>
