<svg xmlns="http://www.w3.org/2000/svg" viewBox="0 0 512 512"><path d="M77.91,178.09H111.3v66.78H77.91Zm100.18,0h33.39v66.78H178.09ZM111.3,144.7h66.79v33.39H111.3Z"/><path d="M300.52,178.09h33.39v66.78H300.52Zm100.18,0h33.39v66.78H400.7ZM333.91,144.7H400.7v33.39H333.91Z"/><polygon points="166.96 311.65 166.96 378.44 200.35 378.44 200.35 411.83 311.65 411.83 311.65 378.44 345.04 378.44 345.04 311.65 166.96 311.65" style="fill:#f44336"/><path d="M200.35,411.83h111.3v33.39H200.35ZM345,278.26H133.57V378.43H167V311.65H345v66.78h33.39V278.26ZM167,378.43h33.39v33.4H167Zm144.69,0H345v33.4H311.65Z"/></svg>